solid OpenSCAD_Model
  facet normal 1 -0 0
    outer loop
      vertex 59 0 2.2
      vertex 59 75 0
      vertex 59 75 2.2
    endloop
  endfacet
  facet normal 1 0 0
    outer loop
      vertex 59 75 0
      vertex 59 0 2.2
      vertex 59 0 0
    endloop
  endfacet
  facet normal 0 0 -1
    outer loop
      vertex 59 0 2.2
      vertex 67.5 75 2.2
      vertex 67.5 0 2.2
    endloop
  endfacet
  facet normal -0 0 -1
    outer loop
      vertex 67.5 75 2.2
      vertex 59 0 2.2
      vertex 59 75 2.2
    endloop
  endfacet
  facet normal 0 0 -1
    outer loop
      vertex -8.5 0 2.2
      vertex 0 75 2.2
      vertex 0 0 2.2
    endloop
  endfacet
  facet normal -0 0 -1
    outer loop
      vertex 0 75 2.2
      vertex -8.5 0 2.2
      vertex -8.5 75 2.2
    endloop
  endfacet
  facet normal 0 0 -1
    outer loop
      vertex 0 0 0
      vertex 59 75 0
      vertex 59 0 0
    endloop
  endfacet
  facet normal -0 0 -1
    outer loop
      vertex 59 75 0
      vertex 0 0 0
      vertex 0 75 0
    endloop
  endfacet
  facet normal -1 0 0
    outer loop
      vertex 0 0 0
      vertex 0 75 2.2
      vertex 0 75 0
    endloop
  endfacet
  facet normal -1 -0 0
    outer loop
      vertex 0 75 2.2
      vertex 0 0 0
      vertex 0 0 2.2
    endloop
  endfacet
  facet normal 0 1 -0
    outer loop
      vertex 59 75 0
      vertex 0 75 2.2
      vertex 59 75 2.2
    endloop
  endfacet
  facet normal 0 1 0
    outer loop
      vertex 0 75 2.2
      vertex 59 75 0
      vertex 0 75 0
    endloop
  endfacet
  facet normal 0 1 0
    outer loop
      vertex 59 75 2.2
      vertex 67.5 75 5.4
      vertex 67.5 75 2.2
    endloop
  endfacet
  facet normal 0 1 0
    outer loop
      vertex 67.5 75 5.4
      vertex 59 75 2.2
      vertex -8.5 75 5.4
    endloop
  endfacet
  facet normal 0 1 -0
    outer loop
      vertex 0 75 2.2
      vertex -8.5 75 5.4
      vertex 59 75 2.2
    endloop
  endfacet
  facet normal 0 1 0
    outer loop
      vertex -8.5 75 5.4
      vertex 0 75 2.2
      vertex -8.5 75 2.2
    endloop
  endfacet
  facet normal 0 -1 0
    outer loop
      vertex 0 0 0
      vertex 59 0 2.2
      vertex 0 0 2.2
    endloop
  endfacet
  facet normal 0 -1 -0
    outer loop
      vertex 59 0 2.2
      vertex 0 0 0
      vertex 59 0 0
    endloop
  endfacet
  facet normal 0 -1 0
    outer loop
      vertex 0 0 2.2
      vertex -8.5 0 5.4
      vertex -8.5 0 2.2
    endloop
  endfacet
  facet normal 0 -1 0
    outer loop
      vertex -8.5 0 5.4
      vertex 0 0 2.2
      vertex 67.5 0 5.4
    endloop
  endfacet
  facet normal 0 -1 0
    outer loop
      vertex 59 0 2.2
      vertex 67.5 0 5.4
      vertex 0 0 2.2
    endloop
  endfacet
  facet normal 0 -1 -0
    outer loop
      vertex 67.5 0 5.4
      vertex 59 0 2.2
      vertex 67.5 0 2.2
    endloop
  endfacet
  facet normal 1 -0 0
    outer loop
      vertex 67.5 0 5.4
      vertex 67.5 75 2.2
      vertex 67.5 75 5.4
    endloop
  endfacet
  facet normal 1 0 0
    outer loop
      vertex 67.5 75 2.2
      vertex 67.5 0 5.4
      vertex 67.5 0 2.2
    endloop
  endfacet
  facet normal -0 0 1
    outer loop
      vertex -8.5 75 5.4
      vertex 67.5 0 5.4
      vertex 67.5 75 5.4
    endloop
  endfacet
  facet normal 0 0 1
    outer loop
      vertex 67.5 0 5.4
      vertex -8.5 75 5.4
      vertex -8.5 0 5.4
    endloop
  endfacet
  facet normal -1 0 0
    outer loop
      vertex -8.5 0 2.2
      vertex -8.5 75 5.4
      vertex -8.5 75 2.2
    endloop
  endfacet
  facet normal -1 -0 0
    outer loop
      vertex -8.5 75 5.4
      vertex -8.5 0 2.2
      vertex -8.5 0 5.4
    endloop
  endfacet
endsolid OpenSCAD_Model
